<svg width="128" height="128" viewBox="0 0 128 128" fill="none" xmlns="http://www.w3.org/2000/svg">
  <defs>
    <linearGradient id="coin" x1="30" y1="18" x2="103" y2="116" gradientUnits="userSpaceOnUse">
      <stop offset="0" stop-color="#FFD66B"/>
      <stop offset="0.48" stop-color="#FF9F1C"/>
      <stop offset="1" stop-color="#FF5A1F"/>
    </linearGradient>
    <linearGradient id="line" x1="20" y1="94" x2="108" y2="34" gradientUnits="userSpaceOnUse">
      <stop offset="0" stop-color="#2DD4BF"/>
      <stop offset="0.55" stop-color="#FACC15"/>
      <stop offset="1" stop-color="#FB923C"/>
    </linearGradient>
    <filter id="glow" x="-20%" y="-20%" width="140%" height="140%" color-interpolation-filters="sRGB">
      <feDropShadow dx="0" dy="0" stdDeviation="4" flood-color="#FFB800" flood-opacity="0.45"/>
      <feDropShadow dx="0" dy="8" stdDeviation="10" flood-color="#000000" flood-opacity="0.4"/>
    </filter>
  </defs>
  <rect x="12" y="12" width="104" height="104" rx="28" fill="#151515"/>
  <rect x="14.5" y="14.5" width="99" height="99" rx="25.5" stroke="url(#coin)" stroke-width="5"/>
  <path d="M32 82C32 65.984 45.984 52 62 52H89" stroke="#3A2A12" stroke-width="22" stroke-linecap="round"/>
  <path d="M37 87C52.2 87 55.8 40 91 40" stroke="url(#line)" stroke-width="10" stroke-linecap="round" filter="url(#glow)"/>
  <path d="M87 28L105 40L88 54" stroke="#FFD66B" stroke-width="9" stroke-linecap="round" stroke-linejoin="round" filter="url(#glow)"/>
  <path d="M91 40H70" stroke="#FFD66B" stroke-width="9" stroke-linecap="round" filter="url(#glow)"/>
  <path d="M95 74C95 90.016 82.016 103 66 103H39" stroke="#3A2A12" stroke-width="22" stroke-linecap="round"/>
  <path d="M91 70C75.8 70 72.2 106 37 106" stroke="url(#line)" stroke-width="10" stroke-linecap="round" filter="url(#glow)"/>
  <path d="M41 94L24 106L41 120" stroke="#2DD4BF" stroke-width="9" stroke-linecap="round" stroke-linejoin="round" filter="url(#glow)"/>
  <path d="M37 106H58" stroke="#2DD4BF" stroke-width="9" stroke-linecap="round" filter="url(#glow)"/>
  <circle cx="39" cy="87" r="7" fill="#FACC15" stroke="#FFF3B0" stroke-width="2"/>
  <circle cx="89" cy="70" r="7" fill="#F97316" stroke="#FFE7C2" stroke-width="2"/>
</svg>
